<svg xmlns="http://www.w3.org/2000/svg" width="30.003" height="30.003" viewBox="0 0 30.003 30.003">
  <g id="Group_14111" data-name="Group 14111" transform="translate(-40 -824.498)">
    <g id="Group_14015" data-name="Group 14015" transform="translate(1 -0.498)">
      <g id="Group_14014" data-name="Group 14014">
        <path id="Ellipse_553" data-name="Ellipse 553" d="M15,.8A14.2,14.2,0,1,0,29.2,15,14.217,14.217,0,0,0,15,.8M15,0A15,15,0,1,1,0,15,15,15,0,0,1,15,0Z" transform="translate(39 824.996)" fill="#8d8d8d"/>
        <g id="Group_14013" data-name="Group 14013">
          <path id="hidden" d="M10.334,9.185A2.763,2.763,0,0,0,7.895,5.127a1.358,1.358,0,0,0-.253.016L6.632,3.627a8.121,8.121,0,0,1,1.263-.095,9.369,9.369,0,0,1,7.437,4.145c.016.032.032.063.047.1a.4.4,0,0,1,0,.221.3.3,0,0,1-.047.1c-.008.008-.008.016-.016.024A10.175,10.175,0,0,1,11.747,11.3ZM.411,7.779c.016-.039.032-.071.047-.1A9.928,9.928,0,0,1,4.895,4.1L2.829,1A.395.395,0,0,1,3.486.566L12.96,14.777a.4.4,0,0,1-.11.547.39.39,0,0,1-.219.066.4.4,0,0,1-.328-.176l-2.184-3.276a8.2,8.2,0,0,1-2.224.31A9.361,9.361,0,0,1,.474,8.127C.466,8.119.466,8.111.458,8.1A.3.3,0,0,1,.411,8a.395.395,0,0,1,0-.221Zm4.99,1.3a2.763,2.763,0,0,0,3.683,1.307l-.448-.671A1.963,1.963,0,0,1,6.5,6.505l-.444-.668A2.75,2.75,0,0,0,5.4,9.077ZM9.868,7.89a1.968,1.968,0,0,0-1.7-1.95L9.805,8.387A2.043,2.043,0,0,0,9.868,7.89Z" transform="translate(46.605 831.605)" fill="#8d8d8d"/>
          <rect id="Rectangle_4561" data-name="Rectangle 4561" width="15" height="15" transform="translate(47 832)" fill="none"/>
        </g>
      </g>
    </g>
  </g>
</svg>
