<svg xmlns="http://www.w3.org/2000/svg" width="8.923" height="20.161" viewBox="0 0 8.923 20.161">
  <g id="Group_14463" data-name="Group 14463" transform="translate(-28.038 -545.421)">
    <path id="Path_23602" data-name="Path 23602" d="M12.09,23.975h1.652V25.3H12.09Z" transform="translate(19.583 540.285)" fill="#fcfcfc"/>
    <path id="Path_23603" data-name="Path 23603" d="M13.273,2.267a2.476,2.476,0,0,0,.218-.991c0-.586-.265-.661-.5-.661s-.5.075-.5.661a2.482,2.482,0,0,0,.218.991Z" transform="translate(19.504 544.807)" fill="#fcfcfc"/>
    <path id="Path_23604" data-name="Path 23604" d="M13.743,3.239a.165.165,0,0,0-.165-.165H12.255a.165.165,0,0,0-.165.165v.5h1.652Z" transform="translate(19.583 544.332)" fill="#fcfcfc"/>
    <path id="Path_23605" data-name="Path 23605" d="M16.505,18.986v-1.1a4.565,4.565,0,0,0-1.6-3.469,2.053,2.053,0,0,1-.718-1.561,2.891,2.891,0,0,1,.44-1.535l.125-.2a9.978,9.978,0,0,0,1.409-3.792A1.948,1.948,0,0,0,14.417,5.09l-.228-.02a2.052,2.052,0,0,1-.009.266,7.863,7.863,0,0,1-.6,2.531.165.165,0,0,1-.273-.186A6.936,6.936,0,0,0,13.85,5.3a1.707,1.707,0,0,0,.009-.259l-.238-.022A.82.82,0,0,1,12.88,4.3H11.207a.82.82,0,0,1-.741.715l-.3.027a1.766,1.766,0,0,0,0,.217C10.5,8.778,11.9,15.275,11.916,15.34a.165.165,0,0,1-.127.2.16.16,0,0,1-.035,0,.165.165,0,0,1-.161-.13c-.014-.065-1.425-6.581-1.75-10.117a2.079,2.079,0,0,1,0-.217l-.169.016A1.948,1.948,0,0,0,7.922,7.327a9.975,9.975,0,0,0,1.409,3.792l.125.2a2.891,2.891,0,0,1,.44,1.535,2.054,2.054,0,0,1-.718,1.561,4.564,4.564,0,0,0-1.6,3.469v1.1a.851.851,0,0,0,.85.85h7.224a.852.852,0,0,0,.849-.851Z" transform="translate(20.456 544.094)" fill="#fcfcfc"/>
  </g>
</svg>
