<svg xmlns="http://www.w3.org/2000/svg" xmlns:xlink="http://www.w3.org/1999/xlink" width="10" height="10" viewBox="0 0 10 10">
  <defs>
    <clipPath id="clip-path">
      <rect id="Rectangle_4561" data-name="Rectangle 4561" width="10" height="10" fill="none"/>
    </clipPath>
  </defs>
  <g id="Mask_Group_497" data-name="Mask Group 497" clip-path="url(#clip-path)">
    <path id="courier-services" d="M10.145,5.084a.4.4,0,0,1-.4.39h-1.6A1.085,1.085,0,0,1,7.655,5.3L6.525,4.207a.382.382,0,0,1,0-.551.413.413,0,0,1,.569,0L8.167,4.694H9.743a.4.4,0,0,1,.4.39ZM3.354,4.992a.413.413,0,0,0,.569-.006l1.06-1.05.386,0,.206-.781-.625.007a1.084,1.084,0,0,0-.487.178L3.347,4.441a.382.382,0,0,0,.007.551ZM8.095,7.273l-1.184-.93.289-1.1L6.326,4.4a.649.649,0,0,1,0-.937.7.7,0,0,1,.968,0l.3.291.032-.121a.535.535,0,0,0-.4-.65l-.7-.174a.555.555,0,0,0-.671.385l-.162.614L5.1,6.067,4.37,7.435,2.893,7.353a.281.281,0,0,0-.3.262l-.018.361a.28.28,0,0,0,.271.289l1.994.093c.081,0,.252-.025.288-.095L5.9,6.775l.131.075,1.249.941L7.358,9.51a.282.282,0,0,0,.3.264l.373-.015A.28.28,0,0,0,8.3,9.473L8.218,7.542a.455.455,0,0,0-.123-.269Zm1.991-4.845H9.633v.564a.139.139,0,0,1-.141.136H8.9a.138.138,0,0,1-.141-.136V2.428H8.308a.139.139,0,0,0-.141.136V4.285a.139.139,0,0,0,.141.136h1.778a.139.139,0,0,0,.141-.136V2.565A.139.139,0,0,0,10.085,2.428Zm-.734,0h-.31v.427h.31ZM7.981,1.592h.493a.136.136,0,1,0,0-.273H7.919a.98.98,0,0,0-.078-.157A1.015,1.015,0,0,0,7.216.709a1.046,1.046,0,0,0-.773.108.989.989,0,0,0-.467.6l0,.011a.961.961,0,0,0-.028.165H7.981ZM.645,5.779a.136.136,0,1,0,0,.273H3.157a.136.136,0,1,0,0-.273ZM1.983,7.267H.588a.136.136,0,1,0,0,.273H1.983a.136.136,0,1,0,0-.273ZM3.368,1.586h1.62a.136.136,0,1,0,0-.273H3.368a.136.136,0,1,0,0,.273ZM2.731,4.427a.139.139,0,0,0-.141-.136H.367a.136.136,0,1,0,0,.273H2.59a.139.139,0,0,0,.141-.136Zm-.96-1.352H3.6a.136.136,0,1,0,0-.273H1.771a.136.136,0,1,0,0,.273Zm4.974-.418a.882.882,0,0,0,1.07-.614.83.83,0,0,0,.027-.178H6.084a.858.858,0,0,0,.661.793Z" transform="translate(-0.226 -0.227)" fill="#8d8d8d" fill-rule="evenodd"/>
  </g>
</svg>
