<svg xmlns="http://www.w3.org/2000/svg" width="10" height="10" viewBox="0 0 10 10">
  <g id="Group_14112" data-name="Group 14112" transform="translate(-127.001 -686)">
    <path id="Path_23391" data-name="Path 23391" d="M23.39,7.542,22.122,8.82l.3,1.81a1.47,1.47,0,0,1-.559,1.424,1.352,1.352,0,0,1-1.481.11l-1.564-.851-1.57.853a1.345,1.345,0,0,1-.654.17,1.368,1.368,0,0,1-.827-.28,1.479,1.479,0,0,1-.559-1.426l.3-1.81L14.244,7.542a1.483,1.483,0,0,1-.357-1.493,1.411,1.411,0,0,1,1.133-.992l1.753-.264.784-1.645a1.392,1.392,0,0,1,1.26-.812h0a1.4,1.4,0,0,1,1.26.814l.78,1.642,1.753.264a1.414,1.414,0,0,1,1.135.992,1.483,1.483,0,0,1-.357,1.493Z" transform="translate(113.184 683.664)" fill="#402cdd"/>
  </g>
</svg>
