<svg xmlns="http://www.w3.org/2000/svg" width="27.08" height="30.667" viewBox="0 0 27.08 30.667">
  <g id="Group_4327" data-name="Group 4327" transform="translate(-339.961 -104.334)">
    <g id="Group_4784" data-name="Group 4784">
      <g id="Group_3920" data-name="Group 3920" transform="translate(339.961 104.334)">
        <g id="Path_15805" data-name="Path 15805" transform="translate(0 6.851) rotate(-45)" fill="#d8befc">
          <path d="M 2.76828145980835 13.74155521392822 C 2.055551528930664 13.74155521392822 1.385491609573364 13.46401500701904 0.8815115690231323 12.96003532409668 C 0.377541571855545 12.45606517791748 0.1000015735626221 11.78599452972412 0.1000015735626221 11.07326507568359 L 0.1000615805387497 2.768354892730713 C 0.1000715792179108 1.297054886817932 1.297071576118469 0.1000449359416962 2.768381595611572 0.100024938583374 L 6.920841693878174 0.1000049337744713 C 7.633571624755859 0.09999493509531021 8.303631782531738 0.3775449395179749 8.807611465454102 0.8815149068832397 C 9.311581611633301 1.385484933853149 9.58912181854248 2.055554866790771 9.58912181854248 2.768285036087036 L 9.589061737060547 11.07319450378418 C 9.589051246643066 12.54450511932373 8.392051696777344 13.74151515960693 6.920741558074951 13.7415246963501 L 2.76828145980835 13.74155521392822 Z" stroke="none"/>
          <path d="M 6.920841693878174 -4.76837158203125e-06 L 6.920841693878174 0.1999950408935547 L 2.768381595611572 0.2000246047973633 C 1.352211952209473 0.2000350952148438 0.2000713348388672 1.352185249328613 0.2000617980957031 2.768355369567871 L 0.2000017166137695 11.07326507568359 C 0.2000017166137695 11.75928497314453 0.4671411514282227 12.40424537658691 0.9522218704223633 12.88932514190674 C 1.437311172485352 13.37441539764404 2.082261562347412 13.6415548324585 2.76828145980835 13.64154529571533 L 6.920741558074951 13.64152526855469 C 8.336911201477051 13.64151477813721 9.489051818847656 12.48936462402344 9.48906135559082 11.07319450378418 L 9.489121437072754 2.768284797668457 C 9.489121437072754 2.08226490020752 9.221982002258301 1.437304496765137 8.73690128326416 0.9522247314453125 C 8.251811981201172 0.4671344757080078 7.606861591339111 0.1999950408935547 6.920841693878174 0.1999950408935547 L 6.920841693878174 -4.76837158203125e-06 M 6.920841693878174 -4.76837158203125e-06 C 8.449731826782227 -1.52587890625e-05 9.689131736755371 1.239395141601562 9.689121246337891 2.768284797668457 L 9.689061164855957 11.07319450378418 C 9.689051628112793 12.60208511352539 8.449631690979004 13.84151458740234 6.920741558074951 13.84152507781982 L 2.76828145980835 13.84154510498047 C 1.239391326904297 13.84156513214111 -8.58306884765625e-06 12.60215473175049 1.9073486328125e-06 11.07326507568359 L 6.198883056640625e-05 2.768355369567871 C 7.152557373046875e-05 1.23946475982666 1.23949146270752 3.528594970703125e-05 2.768381595611572 2.47955322265625e-05 L 6.920841693878174 -4.76837158203125e-06 Z" stroke="none" fill="#404040"/>
        </g>
        <g id="Path_15804" data-name="Path 15804" transform="translate(0.67 12.813) rotate(-45)" fill="#ffa3a3">
          <path d="M 2.76828145980835 13.74155521392822 C 2.055551528930664 13.74155521392822 1.385491609573364 13.46401500701904 0.8815115690231323 12.96003532409668 C 0.377541571855545 12.45606517791748 0.1000015735626221 11.78599452972412 0.1000015735626221 11.07326507568359 L 0.1000615805387497 2.768354892730713 C 0.1000715792179108 1.297054886817932 1.297071576118469 0.1000449359416962 2.768381595611572 0.100024938583374 L 6.920841693878174 0.1000049337744713 C 7.633571624755859 0.09999493509531021 8.303631782531738 0.3775449395179749 8.807611465454102 0.8815149068832397 C 9.311581611633301 1.385484933853149 9.58912181854248 2.055554866790771 9.58912181854248 2.768285036087036 L 9.589061737060547 11.07319450378418 C 9.589051246643066 12.54450511932373 8.392051696777344 13.74151515960693 6.920741558074951 13.7415246963501 L 2.76828145980835 13.74155521392822 Z" stroke="none"/>
          <path d="M 6.920841693878174 -4.76837158203125e-06 L 6.920841693878174 0.1999950408935547 L 2.768381595611572 0.2000246047973633 C 1.352211952209473 0.2000350952148438 0.2000713348388672 1.352185249328613 0.2000617980957031 2.768355369567871 L 0.2000017166137695 11.07326507568359 C 0.2000017166137695 11.75928497314453 0.4671411514282227 12.40424537658691 0.9522218704223633 12.88932514190674 C 1.437311172485352 13.37441539764404 2.082261562347412 13.6415548324585 2.76828145980835 13.64154529571533 L 6.920741558074951 13.64152526855469 C 8.336911201477051 13.64151477813721 9.489051818847656 12.48936462402344 9.48906135559082 11.07319450378418 L 9.489121437072754 2.768284797668457 C 9.489121437072754 2.08226490020752 9.221982002258301 1.437304496765137 8.73690128326416 0.9522247314453125 C 8.251811981201172 0.4671344757080078 7.606861591339111 0.1999950408935547 6.920841693878174 0.1999950408935547 L 6.920841693878174 -4.76837158203125e-06 M 6.920841693878174 -4.76837158203125e-06 C 8.449731826782227 -1.52587890625e-05 9.689131736755371 1.239395141601562 9.689121246337891 2.768284797668457 L 9.689061164855957 11.07319450378418 C 9.689051628112793 12.60208511352539 8.449631690979004 13.84151458740234 6.920741558074951 13.84152507781982 L 2.76828145980835 13.84154510498047 C 1.239391326904297 13.84156513214111 -8.58306884765625e-06 12.60215473175049 1.9073486328125e-06 11.07326507568359 L 6.198883056640625e-05 2.768355369567871 C 7.152557373046875e-05 1.23946475982666 1.23949146270752 3.528594970703125e-05 2.768381595611572 2.47955322265625e-05 L 6.920841693878174 -4.76837158203125e-06 Z" stroke="none" fill="#404040"/>
        </g>
        <g id="Path_15806" data-name="Path 15806" transform="translate(7.338 11.004) rotate(-45)" fill="#aafff8">
          <path d="M 2.76828145980835 15.18544292449951 C 2.057441473007202 15.18544292449951 1.388591527938843 14.8791332244873 0.8849315643310547 14.32293319702148 C 0.3787515759468079 13.7639627456665 0.1000015735626221 13.02010345458984 0.1000015735626221 12.22838306427002 L 0.1000615805387497 3.057133197784424 C 0.1000715792179108 1.426593065261841 1.297071576118469 0.1000430807471275 2.768381595611572 0.1000330820679665 L 6.920841693878174 0.1000030860304832 C 7.631681442260742 0.1000030860304832 8.300531387329102 0.4063130915164948 8.804191589355469 0.9625130891799927 C 9.310371398925781 1.521483063697815 9.58912181854248 2.265343189239502 9.58912181854248 3.057063102722168 L 9.589061737060547 12.22830295562744 C 9.589051246643066 13.85885334014893 8.392051696777344 15.18540287017822 6.920741558074951 15.1854133605957 L 2.76828145980835 15.18544292449951 Z" stroke="none"/>
          <path d="M 6.920841693878174 2.86102294921875e-06 L 6.920841693878174 0.2000026702880859 L 2.768381595611572 0.2000331878662109 C 1.352211952209473 0.200042724609375 0.2000713348388672 1.481733322143555 0.2000617980957031 3.057132720947266 L 0.2000017166137695 12.22838306427002 C 0.2000017166137695 12.99524307250977 0.4695711135864258 13.71526336669922 0.9590511322021484 14.25581359863281 C 1.443511962890625 14.79081344604492 2.086041450500488 15.0854434967041 2.76828145980835 15.0854434967041 L 6.920741558074951 15.08541297912598 C 8.336911201477051 15.08540344238281 9.489051818847656 13.80371284484863 9.48906135559082 12.22830295562744 L 9.489121437072754 3.057063102722168 C 9.489121437072754 2.290203094482422 9.219551086425781 1.570182800292969 8.730072021484375 1.029633522033691 C 8.245611190795898 0.4946327209472656 7.603081703186035 0.2000026702880859 6.920841693878174 0.2000026702880859 L 6.920841693878174 2.86102294921875e-06 M 6.920841693878174 2.86102294921875e-06 C 8.449731826782227 -6.67572021484375e-06 9.689131736755371 1.368682861328125 9.689121246337891 3.057063102722168 L 9.689061164855957 12.22830295562744 C 9.689051628112793 13.91669273376465 8.449631690979004 15.28540325164795 6.920741558074951 15.28541278839111 L 2.76828145980835 15.28544330596924 C 1.239391326904297 15.2854528427124 -8.58306884765625e-06 13.91676330566406 1.9073486328125e-06 12.22838306427002 L 6.198883056640625e-05 3.057132720947266 C 7.152557373046875e-05 1.368753433227539 1.23949146270752 4.291534423828125e-05 2.768381595611572 3.337860107421875e-05 L 6.920841693878174 2.86102294921875e-06 Z" stroke="none" fill="#404040"/>
        </g>
      </g>
      <g id="Group_4033" data-name="Group 4033" transform="translate(346.051 110.449)">
        <g id="Group_4032" data-name="Group 4032">
          <path id="Path_15859" data-name="Path 15859" d="M-1.769-1.843H12.9l2.772,15.3s-1.387,2.127-2.185,2.126c-.6,0-11.179.349-16.209-.268-1.327-.163-1.789-1.858-1.789-1.858Z" transform="translate(4.959 8.63)" fill="#2c2a2a"/>
          <g id="bag-5">
            <g id="Group_2946" data-name="Group 2946">
              <path id="Path_15168" data-name="Path 15168" d="M62.947,51.3h15.1a2.95,2.95,0,0,0,2.947-2.947.314.314,0,0,0,0-.056L78.535,34.461a1.626,1.626,0,0,0-1.614-1.377H75.155V31.409a4.66,4.66,0,1,0-9.32,0v1.675H64.07a1.626,1.626,0,0,0-1.614,1.378L60,48.3a.317.317,0,0,0,0,.056A2.95,2.95,0,0,0,62.947,51.3Zm3.531-19.891a4.018,4.018,0,0,1,8.035,0v1.675H66.478ZM63.089,34.57v-.006a.987.987,0,0,1,.979-.838h1.765v2.542a.321.321,0,1,0,.643,0V33.726h8.035v2.542a.321.321,0,1,0,.643,0V33.726h1.766a.987.987,0,0,1,.979.838v.006l2.447,13.811a2.307,2.307,0,0,1-2.3,2.277h-15.1a2.307,2.307,0,0,1-2.3-2.277Z" transform="translate(-60 -26.749)" fill="#f0f0f0"/>
            </g>
          </g>
        </g>
        <path id="Path_15172" data-name="Path 15172" d="M0,0A9.629,9.629,0,0,0,5.332,2.2c2.76,0,5.708-2.2,5.708-2.2" transform="translate(4.975 16.041)" fill="none" stroke="#fce66e" stroke-linecap="round" stroke-width="0.6"/>
      </g>
    </g>
  </g>
</svg>
